# xmcd
#
# Track frame offsets: 
#        150
#        19711
#        36673
#        57648
#        81653
#        100289
#        124280
#        142136
#
# Disc length: 2186 seconds
#
# Revision: 0
# Processed by: cddbd v1.5.2PL0 Copyright (c) Steve Scherf et al.
# Submitted via: ExactAudioCopyFreeDBPlugin 1.0
#
DISCID=7e088808
DTITLE=Depeche Mode - Tribute For The Masses
DYEAR=2017
DGENRE=Synthpop
TTITLE0=Die Autobahn - Never Let Me Down Again
TTITLE1=Angelzoom - The Things You Said
TTITLE2=Machinista - Strangelove
TTITLE3=Winterhart - Behind The Wheel
TTITLE4=Binary Park - To Have And To Hold
TTITLE5=Decoded Feedback - Nothing
TTITLE6=Orange Sector - Pleasure, Little Treasure
TTITLE7=Deutsche Bank - Pimpf
EXTD=
EXTT0=
EXTT1=
EXTT2=
EXTT3=
EXTT4=
EXTT5=
EXTT6=
EXTT7=
PLAYORDER=
